<svg width="50" height="62" viewBox="0 0 50 62" fill="none" xmlns="http://www.w3.org/2000/svg">
<circle cx="25" cy="37" r="24.5" fill="white" stroke="#84CBB2"/>
<path d="M15 27H17.1884C17.9384 27 18.3134 27 18.5846 27.2118C18.8559 27.4236 18.9468 27.7874 19.1287 28.5149L19.3937 29.5746C19.6107 30.4427 19.7192 30.8768 19.9614 31.1998C20.1742 31.4836 20.4587 31.7057 20.7857 31.8434C21.1578 32 21.6052 32 22.5 32V32" stroke="#0A8F60" stroke-width="2" stroke-linecap="round"/>
<path d="M32.5 43.25H19.4386C18.9444 43.25 18.6972 43.25 18.5203 43.1802C18.1567 43.0367 17.9101 42.6945 17.8889 42.3042C17.8786 42.1142 17.9567 41.8798 18.113 41.4109V41.4109C18.2864 40.8909 18.373 40.6309 18.5076 40.421C18.7816 39.9933 19.208 39.686 19.7004 39.5612C19.9421 39.5 20.2162 39.5 20.7642 39.5H27.5" stroke="#0A8F60" stroke-width="2" stroke-linecap="round" stroke-linejoin="round"/>
<path d="M30.0139 39.5H21.6943C20.7166 39.5 19.8822 38.7932 19.7215 37.8288L19.0411 33.7466C18.8887 32.8323 19.5938 32 20.5207 32H33.382C34.1253 32 34.6088 32.7823 34.2764 33.4472L31.8028 38.3944C31.464 39.072 30.7715 39.5 30.0139 39.5Z" stroke="#0A8F60" stroke-width="2" stroke-linecap="round"/>
<circle cx="31.25" cy="47" r="1.25" fill="#0A8F60"/>
<circle cx="21.25" cy="47" r="1.25" fill="#0A8F60"/>
<circle cx="37.5" cy="12.5" r="12.5" fill="#D1A403"/>
<path d="M36.408 12.184C36.408 13.096 36.464 13.8 36.576 14.296C36.688 14.784 36.836 15.12 37.02 15.304C37.204 15.488 37.408 15.58 37.632 15.58C37.848 15.58 38.048 15.488 38.232 15.304C38.416 15.112 38.564 14.772 38.676 14.284C38.788 13.788 38.844 13.088 38.844 12.184C38.844 11.264 38.788 10.556 38.676 10.06C38.564 9.564 38.416 9.224 38.232 9.04C38.048 8.848 37.848 8.752 37.632 8.752C37.408 8.752 37.204 8.848 37.02 9.04C36.836 9.224 36.688 9.564 36.576 10.06C36.464 10.548 36.408 11.256 36.408 12.184ZM37.632 8.164C38.088 8.164 38.52 8.3 38.928 8.572C39.336 8.836 39.664 9.264 39.912 9.856C40.168 10.44 40.296 11.216 40.296 12.184C40.296 13.136 40.168 13.908 39.912 14.5C39.664 15.084 39.336 15.508 38.928 15.772C38.52 16.036 38.088 16.168 37.632 16.168C37.168 16.168 36.732 16.036 36.324 15.772C35.916 15.508 35.584 15.084 35.328 14.5C35.08 13.908 34.956 13.136 34.956 12.184C34.956 11.216 35.08 10.44 35.328 9.856C35.584 9.264 35.916 8.836 36.324 8.572C36.732 8.3 37.168 8.164 37.632 8.164Z" fill="white"/>
</svg>
